<svg id="aff58bbf-6829-463e-be39-52ce34af6b7e" data-name="Layer 1" xmlns="http://www.w3.org/2000/svg" xmlns:xlink="http://www.w3.org/1999/xlink" viewBox="0 0 439.28 70.66"><defs><linearGradient id="eb935403-897d-4692-8296-a0082ab05213" x1="23.09" y1="51.45" x2="49.08" y2="51.45" gradientUnits="userSpaceOnUse"><stop offset="0" stop-color="#f89623"/><stop offset="1" stop-color="#ffc61d"/></linearGradient><linearGradient id="fe10524f-a4c2-4176-9bab-45f059414475" x1="72.17" y1="14.83" x2="0" y2="14.83" gradientUnits="userSpaceOnUse"><stop offset="0" stop-color="#ffc61d"/><stop offset="1" stop-color="#f89623"/></linearGradient></defs><title>TS-LOGO_cmyk-white</title><path d="M422.71,58.27a33.86,33.86,0,0,1-5.35-.41c-2.26-.4-6.29-1.59-8-5.18-1.41-3.23-.8-6.64-.21-9.93.13-.7.73-4.32.73-4.32.59-3.54,1.18-7.2,3.43-10.15,3.39-4.54,9.2-5.55,12.36-5.75,1-.08,1.91-.1,2.87-.1a55.67,55.67,0,0,1,10.62,1.13,14.94,14.94,0,0,1-.29,4.88c-.12.69-.24,1.38-.34,2.07a81.61,81.61,0,0,0-9.61-.74c-.59,0-1.18,0-1.76,0-1.79.08-5,.57-6.72,3.08-1.3,1.89-1.65,4.21-2,6.45-.11.75-.22,1.49-.36,2.22l-.16.91c-.35,1.94-.71,3.94,0,5.75,1,2.33,4,2.62,4.95,2.66s1.56.06,2.35.06a47.55,47.55,0,0,0,9.56-1,49.06,49.06,0,0,1-.76,6.36l-.1.56a49.19,49.19,0,0,1-11.3,1.42" style="fill:#fff;fill-rule:evenodd"/><path d="M403.66,18.86a9.62,9.62,0,0,1-2.65-.37c-1.48-.54-1.87-2.28-1.6-3.77.29-2.11.86-4.39,2.91-5.18a10.48,10.48,0,0,1,2.8-.39,9,9,0,0,1,2.59.36c1.38.38,1.83,2,1.66,3.36-.14,1.6-.39,4.3-2.47,5.4a9.18,9.18,0,0,1-3.23.58" style="fill:#fff;fill-rule:evenodd"/><path d="M392.79,57.69l5.47-34.61h8.62l-4.81,30.44a5,5,0,0,1-1.69,3,4.87,4.87,0,0,1-3.15,1.22Zm0,0" style="fill:#fff;fill-rule:evenodd"/><path d="M380.71,58.08a16.3,16.3,0,0,1-4.37-.33,7.72,7.72,0,0,1-5.46-5c-.74-2.2-.33-4.51.08-6.66l2.58-16.35H372a2.79,2.79,0,0,1-2.16-1,2.87,2.87,0,0,1-.59-2.32l.53-3.36h5.52A41.61,41.61,0,0,1,377,17.23l1-3.08h3.63c1,0,2.28,0,3.31,0l-.83,5.24-.58,3.69h5.93a2.8,2.8,0,0,1,2.18,1,2.87,2.87,0,0,1,.6,2.33l-.53,3.37h-9.5l-2.78,17.58c-.25,1.25,0,2.84,1.26,3.37a8.91,8.91,0,0,0,3.16.49c.93,0,1.85-.08,2.78-.17l1.5-.11-.84,5.2L387,57.71l-6.3.36Zm0,0" style="fill:#fff;fill-rule:evenodd"/><path d="M327.5,70.66,335,23.26l2.7-.24H342l.36.84.11,1.07a23.65,23.65,0,0,1,10.23-2.5,16.82,16.82,0,0,1,5.31.81,8.54,8.54,0,0,1,5.9,6c.85,3.35.24,6.75-.34,10-.18,1-.37,2-.51,3-.61,4.1-1.67,8.73-4.91,11.9-2.7,2.69-6.75,4.05-12,4.05h0a30.13,30.13,0,0,1-8.23-1.05l-1.38,8.72a5.6,5.6,0,0,1-1.91,3.33A5.5,5.5,0,0,1,331,70.66Zm11.9-20.09c1.4,0,3.75.41,6.09.41a16.16,16.16,0,0,0,4.55-.6c2.12-.65,3.48-2.8,4-6.36.18-1.31.42-2.62.66-3.93a46.33,46.33,0,0,0,.87-6.17,3.48,3.48,0,0,0-2.65-3.82,17,17,0,0,0-3.39-.33,28.54,28.54,0,0,0-7.13,1c-.24,2.48-.69,5.2-1.13,7.93-.64,4-1.29,7.89-2,11.84Zm0,0" style="fill:#fff;fill-rule:evenodd"/><path d="M325.21,18.85a9.13,9.13,0,0,1-2.6-.37c-1.46-.54-1.85-2.27-1.59-3.75.31-2.2.86-4.38,2.87-5.18a11.88,11.88,0,0,1,3-.42,6.84,6.84,0,0,1,3.06.66c1.34,1.1,1.1,2.8.9,4.16-.22,1.62-.77,3.76-2.69,4.44a9.83,9.83,0,0,1-2.94.44" style="fill:#fff;fill-rule:evenodd"/><path d="M314.44,57.69l5.47-34.61h8.62l-4.81,30.44A5,5,0,0,1,322,56.47a4.85,4.85,0,0,1-3.14,1.22Zm0,0" style="fill:#fff;fill-rule:evenodd"/><path d="M287.14,57.69l5.44-34.43,1.94-.24h2q1.57,0,3.13,0l.66,3.18,1.08-.66c3.9-1.43,8.22-2.91,12.48-3.24l-.77,4.83-.5,3.13c-4.45.46-8.82.77-12.87,2.1L296.3,54.14a4.23,4.23,0,0,1-1.44,2.51,4.14,4.14,0,0,1-2.67,1Zm0,0" style="fill:#fff;fill-rule:evenodd"/><path d="M269.18,58.27a33.62,33.62,0,0,1-5.35-.41c-2.27-.4-6.32-1.6-8-5.2-1.39-3.22-.78-6.61-.2-9.89l.78-4.56c.49-3,1-6,2.58-8.7A14.3,14.3,0,0,1,269,23a33.06,33.06,0,0,1,6.12-.54A56.13,56.13,0,0,1,286,23.61l-1.09,6.89a79.44,79.44,0,0,0-9.39-.73c-.63,0-1.27,0-1.9,0-1.79.08-5,.58-6.7,3.11-1.28,1.89-1.61,4.19-2,6.42-.11.76-.22,1.5-.37,2.24l-.15.86c-.35,1.94-.73,4,0,5.77,1,2.33,4,2.62,4.93,2.67s1.57.06,2.36.06a48.38,48.38,0,0,0,9.75-1l-1.1,6.93a48.74,48.74,0,0,1-11.23,1.41" style="fill:#fff;fill-rule:evenodd"/><path d="M233.79,58.28a35.52,35.52,0,0,1-11.79-2l1.16-7.32A39.22,39.22,0,0,0,234.65,51a23.51,23.51,0,0,0,4.07-.35,2.86,2.86,0,0,0,2.15-2.32,2.34,2.34,0,0,0-.88-2.52,44.65,44.65,0,0,0-4.9-2.7,36.75,36.75,0,0,1-5.65-3.2,6.66,6.66,0,0,1-2.83-5.47c0-2.84.64-6.72,3.48-9s6.65-2.67,10-2.89c.81-.06,1.61-.08,2.43-.08a33.41,33.41,0,0,1,9.71,1.43l-1.12,7.06A51.18,51.18,0,0,0,242,29.81a21.71,21.71,0,0,0-4.77.51,2.33,2.33,0,0,0-1.75,2,1.71,1.71,0,0,0,.92,1.85c1.44.82,2.89,1.56,4.33,2.31,1.92,1,3.83,2,5.67,3.09a6.92,6.92,0,0,1,3.57,5.78c0,2.47-.47,7-3.67,9.81-2.79,2.35-6.58,2.78-10.23,3-.74.05-1.49.08-2.24.08" style="fill:#fff;fill-rule:evenodd"/><path d="M212.27,57.7a3.62,3.62,0,0,1-2.83-1.25,3.73,3.73,0,0,1-.78-3l1-6.49,1.43-8.86.22-1a12.59,12.59,0,0,0,.16-4.91,3.37,3.37,0,0,0-3.12-2.27,15.39,15.39,0,0,0-1.86-.11,29.3,29.3,0,0,0-7.16,1.11L198,39.76l-2.79,17.76h-8.72l2.61-16.3,2.84-18,3.77-.24h3.21l.39,1,.08.88a22,22,0,0,1,10.26-2.5,20.57,20.57,0,0,1,5.21.65,7.32,7.32,0,0,1,4.71,3.23c1.55,2.69,1.17,5.8.73,9l-3.54,22.4Zm0,0" style="fill:#fff;fill-rule:evenodd"/><path d="M162.81,58.27a17.48,17.48,0,0,1-5.48-.84,8.26,8.26,0,0,1-5.76-6.1c-.74-3.45-.1-6.9.53-10.23.21-1.1.41-2.2.57-3.3.53-3.66,1.57-8.24,4.94-11.19,3.08-2.81,7.57-4.18,13.74-4.18h1.19a43.1,43.1,0,0,1,12.83,2.07l-5.24,33.15h-5.25a2.16,2.16,0,0,1-1.56-.62,2.13,2.13,0,0,1-.6-1.55v.39a22.45,22.45,0,0,1-9.9,2.39M170,29.75a13.44,13.44,0,0,0-4.51.68c-2.56,1-3.4,3.85-3.92,6.83-.15,1.13-.36,2.26-.57,3.39a31.08,31.08,0,0,0-.77,6.75,3.22,3.22,0,0,0,2.31,3.12,13.26,13.26,0,0,0,3.42.43,27.93,27.93,0,0,0,6.73-1l1.49-9.43,1.67-10.62-1.4.19c-1.48-.14-3-.3-4.45-.3" style="fill:#fff;fill-rule:evenodd"/><path d="M125.06,57.69l5.44-34.43,1.94-.24h2q1.57,0,3.13,0l.66,3.18,1.08-.66c3.9-1.43,8.22-2.91,12.48-3.24L151,27.15l-.5,3.13c-4.45.46-8.81.77-12.87,2.1l-3.44,21.77a4.23,4.23,0,0,1-1.44,2.51,4.13,4.13,0,0,1-2.67,1Zm0,0" style="fill:#fff;fill-rule:evenodd"/><path d="M113,58.08a16.5,16.5,0,0,1-4.37-.33,7.72,7.72,0,0,1-5.46-5c-.75-2.2-.33-4.51.08-6.66l2.58-16.35h-1.56a2.79,2.79,0,0,1-2.17-1,2.87,2.87,0,0,1-.59-2.32l.53-3.36h5.52a41.1,41.1,0,0,1,1.67-5.82l1-3.08h3.63c1,0,2.28,0,3.31,0l-.83,5.24-.58,3.69h5.93a2.8,2.8,0,0,1,2.18,1,2.86,2.86,0,0,1,.6,2.33l-.53,3.37h-9.5l-2.78,17.58c-.25,1.25,0,2.84,1.26,3.37a8.94,8.94,0,0,0,3.16.49c.93,0,1.86-.08,2.78-.17l1.5-.11-.84,5.21-.25,1.61-6.3.37Zm0,0" style="fill:#fff;fill-rule:evenodd"/><path d="M23.09,51.45a13,13,0,1,0,13-13,13,13,0,0,0-13,13" style="fill-rule:evenodd;fill:url(#eb935403-897d-4692-8296-a0082ab05213)"/><path d="M45.26,4.14a26.72,26.72,0,0,1-4,1.73,17.09,17.09,0,0,1-4.86.81,15.86,15.86,0,0,1-5.26-.77,26.71,26.71,0,0,1-4.17-1.77C21.4,1.05,15.46-1.53,9.19,1.07A15,15,0,0,0,0,15.41,15,15,0,0,0,9.49,28.68c6.21,2.44,12-.14,17.43-3.19a27.61,27.61,0,0,1,4.17-1.76A15.84,15.84,0,0,1,36.35,23a17.08,17.08,0,0,1,4.86.81,27.47,27.47,0,0,1,4,1.72c5.42,3,11.21,5.62,17.42,3.2a15,15,0,0,0,9.48-13.28A15,15,0,0,0,63,1.09,13.74,13.74,0,0,0,57.63,0c-4.31,0-8.44,1.94-12.37,4.14m7,10.77a5.19,5.19,0,1,1,5.19,5.19,5.19,5.19,0,0,1-5.19-5.19" style="fill-rule:evenodd;fill:url(#fe10524f-a4c2-4176-9bab-45f059414475)"/></svg>